<svg id="f46769f5-a07b-452e-9009-3fe36d4d2665" data-name="Layer 1" xmlns="http://www.w3.org/2000/svg" xmlns:xlink="http://www.w3.org/1999/xlink" viewBox="0 0 500 500">
  <defs>
    <linearGradient id="e5b5af04-cae9-4031-b746-99b864678215" x1="110.44" y1="148.31" x2="44.61" y2="-26.05" gradientTransform="matrix(1, 0, 0, -1, 0, 502)" gradientUnits="userSpaceOnUse">
      <stop offset="0" stop-color="#fffcf6"/>
      <stop offset="0.2" stop-color="#f4f0e6"/>
      <stop offset="0.59" stop-color="#d8d1bb"/>
      <stop offset="0.99" stop-color="#b7ac89"/>
    </linearGradient>
    <linearGradient id="d63919e2-94f2-4ffc-99cc-8226efd635ac" x1="78.52" y1="103.57" x2="26.04" y2="-31.65" xlink:href="#e5b5af04-cae9-4031-b746-99b864678215"/>
    <linearGradient id="dcb94214-08f0-4fee-b887-e3a55be01c73" x1="4.67" y1="30" x2="4.65" y2="29.96" xlink:href="#e5b5af04-cae9-4031-b746-99b864678215"/>
    <linearGradient id="d4afc391-cb6c-4d5d-96df-69fa7ecfe787" x1="50.13" y1="56.58" x2="25.23" y2="-13.69" xlink:href="#e5b5af04-cae9-4031-b746-99b864678215"/>
    <linearGradient id="7ad6d5e4-1488-4185-be65-1e3081ddd8a4" x1="5.34" y1="461.72" x2="58.74" y2="461.72" gradientTransform="matrix(-0.16, 0.99, 0.99, 0.16, -230.8, 191)" gradientUnits="userSpaceOnUse">
      <stop offset="0.05" stop-color="#827717"/>
      <stop offset="1" stop-color="#665d12"/>
    </linearGradient>
    <linearGradient id="dd1b9de2-397a-42d3-8835-2c0393e05b4f" x1="254.15" y1="306.77" x2="252.58" y2="277.8" gradientTransform="matrix(1, -0.04, -0.04, -1, 13.87, 499.76)" gradientUnits="userSpaceOnUse">
      <stop offset="0" stop-color="#ffccbc"/>
      <stop offset="1" stop-color="#ffab91"/>
    </linearGradient>
  </defs>
  <title>intern</title>
  <g>
    <g id="6ae78480-6886-4357-ac03-f67774ba79e6" data-name="90107215-a360-4c16-bf7a-a38a791316d2">
      <rect width="500" height="500" fill="#fbfbfb" stroke="#fbfbfb" stroke-miterlimit="10"/>
      <g opacity="0.58">
        <path d="M500.25,500.25H-.25V-.25h500.5Zm-500-.5h499.5V.25H.25Z" fill="#ddd"/>
        <rect y="416.42" width="500" height="0.5" fill="#ddd"/>
        <rect y="333.08" width="500" height="0.5" fill="#ddd"/>
        <rect y="249.75" width="500" height="0.5" fill="#ddd"/>
        <rect y="166.42" width="500" height="0.5" fill="#ddd"/>
        <rect y="83.08" width="500" height="0.5" fill="#ddd"/>
        <rect x="416.42" width="0.5" height="500" fill="#ddd"/>
        <rect x="333.08" width="0.5" height="500" fill="#ddd"/>
        <rect x="249.75" width="0.5" height="500" fill="#ddd"/>
        <rect x="166.42" width="0.5" height="500" fill="#ddd"/>
        <rect x="83.08" width="0.5" height="500" fill="#ddd"/>
      </g>
    </g>
    <g id="5c1b31ef-6b28-4522-9e12-0ca34aeba780" data-name="2615b3a7-19f8-4e68-bdef-320dc8a179da">
      <g>
        <g>
          <g>
            <polygon points="25.18 344.62 24.64 343.92 93.47 290.38 111.35 305.95 160.89 301.19 208.19 254.69 264.98 323.07 338.83 171.69 360.34 195.94 426.73 141.2 427.29 141.89 360.24 197.17 339.05 173.28 265.18 324.7 208.13 256 161.29 302.04 161.13 302.06 111.05 306.87 93.44 291.54 25.18 344.62" fill="#ddd"/>
            <g>
              <path d="M431.06,141.55a3.78,3.78,0,1,1-3.78-3.78h0A3.78,3.78,0,0,1,431.06,141.55Z" fill="#fff"/>
              <path d="M429.46,141.55a2.18,2.18,0,1,1-2.18-2.18h0A2.2,2.2,0,0,1,429.46,141.55Z" fill="#ffca28"/>
            </g>
          </g>
          <g>
            <polygon points="130.95 489.17 130.31 488.56 230.61 383.42 230.91 383.6 317.09 433.89 357.82 396.04 383.89 412.23 410.38 366.82 411.14 367.27 384.2 413.47 357.92 397.15 317.21 434.99 316.93 434.83 230.76 384.54 130.95 489.17" fill="#ddd"/>
            <g>
              <path d="M415,365.83a3.78,3.78,0,1,1-3.62-3.93h0A3.79,3.79,0,0,1,415,365.83Z" fill="#fff"/>
              <path d="M413.44,365.77a2.18,2.18,0,1,1-2.09-2.27,2.19,2.19,0,0,1,2.09,2.27Z" fill="#42a5f5"/>
            </g>
          </g>
        </g>
        <g>
          <path d="M180,500a19.87,19.87,0,0,0,2.09-9.79c-.31-2.33-.63-4.67-.94-7a28,28,0,0,0-1.36-3.75,20.39,20.39,0,0,0,4.74-7.94,20.75,20.75,0,0,0,2.39-10.65l-1-7.35a27.77,27.77,0,0,0-7.11-12.2l-3.76-2.9a16.77,16.77,0,0,0,.93-6.32q-.39-3-.8-5.94a22.38,22.38,0,0,0-5.75-9.87l-4.52-3.49a22.27,22.27,0,0,0-11.29-3.05,16.74,16.74,0,0,0-8.61,1.92,16.89,16.89,0,0,0-3.38,1.54l-.27-2A22.89,22.89,0,0,0,135.43,401l-4.64-3.59a22.77,22.77,0,0,0-11.58-3.13,17.34,17.34,0,0,0-8.85,2,19,19,0,0,0-2.42,1,10.35,10.35,0,0,0-.16-1.23,19.51,19.51,0,0,0-5-8.62l-4-3.05A19.54,19.54,0,0,0,92.3,382a24,24,0,0,0,3.26-6.5,24.59,24.59,0,0,0,2.8-12.5l-1.17-8.65A32.45,32.45,0,0,0,88.83,340l-6.58-5.08a32.25,32.25,0,0,0-16.42-4.44,24.47,24.47,0,0,0-12.53,2.8,24,24,0,0,0-5.57,2.62,37,37,0,0,0-8.19-12.44L32,317.67a36.91,36.91,0,0,0-18.7-5.06A28,28,0,0,0,0,315.35V500Z" fill="url(#e5b5af04-cae9-4031-b746-99b864678215)"/>
          <path d="M141,500a17.61,17.61,0,0,0,0-1.78l-.66-4.85a18.13,18.13,0,0,0-2.71-5.7,15.57,15.57,0,0,0,1.93-8.13c-.43-9.6-7.78-17.71-17.7-17.71a16.65,16.65,0,0,0-5,.8,16.73,16.73,0,0,0-13.12-10.4,16.34,16.34,0,0,0,1.42-7.39c-.26-1.9-.52-3.81-.77-5.71a21.52,21.52,0,0,0-5.53-9.49l-4.35-3.36a21.4,21.4,0,0,0-7.26-2.63v-.13A16.61,16.61,0,0,0,83,416.19l-3.36-2.6a16.49,16.49,0,0,0-8.39-2.27,12.52,12.52,0,0,0-6.41,1.43c-.4.13-.79.3-1.17.46a14.17,14.17,0,0,0,.38-3.95A18.5,18.5,0,0,0,55.2,394,19.37,19.37,0,0,0,43,391.87c-.06-.45-.12-.89-.17-1.33a26.9,26.9,0,0,0-6.93-11.88l-5.45-4.21A26.87,26.87,0,0,0,19.93,371v-1.72c-.41-3-.81-6-1.22-9.08a34.14,34.14,0,0,0-8.78-15.07L3,339.74c-1-.57-2-1.07-3-1.54V500Z" fill="url(#d63919e2-94f2-4ffc-99cc-8226efd635ac)"/>
          <g>
            <path d="M4.66,472.05V472h0V472Z" fill="url(#dcb94214-08f0-4fee-b887-e3a55be01c73)"/>
            <path d="M100.23,500a18.06,18.06,0,0,0,.79-2,12.93,12.93,0,0,0-7.33-23.44,19,19,0,0,0,.26-3.91c-.28-2.09-.56-4.18-.85-6.29A23.6,23.6,0,0,0,87,453.9q-2.4-1.84-4.79-3.7c-.49-.28-1-.54-1.48-.79-.69-7.29-6.4-13.32-14-13.32a14.36,14.36,0,0,0-9.26,3.59L57,436.16a28.61,28.61,0,0,0-7.37-12.64L43.82,419a28.48,28.48,0,0,0-14.46-3.91h-.82l-.54-3.8A39.2,39.2,0,0,0,17.94,394L10,387.86a39.33,39.33,0,0,0-10-4.11V500Z" fill="url(#d4afc391-cb6c-4d5d-96df-69fa7ecfe787)"/>
          </g>
        </g>
        <g>
          <g>
            <g>
              <path d="M258.77,133.62c1-4.84,3.62-9.82,1.12-14.67-2.3-4.46-7.22-8.82-12.62-9.72a35.19,35.19,0,0,0-14.86.94,53,53,0,0,0-7,3.07c-1.68.83-3.74,2.57-5.59,2.89a12.39,12.39,0,0,0,3.44.09c-2,3.09-7.16,5.74-10.94,6.12a11.21,11.21,0,0,0,5.59,1c-2.8.4-6.48,4.35-8.08,6.32-2,2.51-3.57,5.42-5.64,7.9,1.21-.09,2.43-.15,3.63-.15.43,2.19-1.6,6.55-2.39,8.59-1,2.67-3.06,6.14-5.68,7.73,4,3.93,10.41,6.6,16.21,7.18v.57a18.77,18.77,0,0,1-2.44.79c1.61.84,3,.79,4.49,1.9a25.58,25.58,0,0,1,4.93,4.93c2.77,3.78,5.08,8.36,7.54,12.16-.13-1.45.88-2.81,1.6-4.1-2.41-7.36-5.66-15.61-2-22.82a21.32,21.32,0,0,0,2.54-7.18c.22-1.75.24-3.52.51-5.26a6.08,6.08,0,0,1,3.41-4.94,27.76,27.76,0,0,1,10.76-3c2.64,0,4.57,2.08,5.85,4.17a27.28,27.28,0,0,1,2.59,5.72c.27-.09.56-.18.86-.26C257.5,140.38,263.07,135.64,258.77,133.62Z" fill="#5d4037"/>
              <g>
                <g>
                  <g>
                    <path d="M324,210.2c-1.27-.82-3.27-.94-4.27.27a4.25,4.25,0,0,0-1-.5,2.35,2.35,0,0,1,1-.76,3.51,3.51,0,0,1,.84-.24,3.25,3.25,0,0,0,1.41-.27,1.23,1.23,0,0,0,.37-1.7,1.37,1.37,0,0,0-.19-.23c-1-1-3-.37-3.84.57a3.39,3.39,0,0,0-.93,2.36h-.79a9.2,9.2,0,0,0-3.8,1.3c-2.17,1.25-6.68,4.17-7.3,6.88-.9,3.91,4.63,1.64,6.52.92l5.85-2.22a8.72,8.72,0,0,0,2.06-1V216a.58.58,0,0,0,1.08.4,1.9,1.9,0,0,0,0-1.37.66.66,0,0,0-.23-.29l.14-.21a2.31,2.31,0,0,0,.25-.68h0a1.91,1.91,0,0,1,.37,1.24c0,.94,1.58,1.15,1.72.15a3.09,3.09,0,0,0-1-2.61,2.08,2.08,0,0,0-1.19-.59H321l-.12-.28c.51-.33,1.14-.48,1.47.18a1.25,1.25,0,0,0,1.95.19,1.28,1.28,0,0,0-.12-1.79Z" fill="#ffccbc"/>
                    <path d="M317.75,210.29c-.44,0-.81.42-1.14.65a4.7,4.7,0,0,1-3,.8c-.25,0-.4.4-.11.47a3.78,3.78,0,0,0,2.75-.44c.35-.18.83-.63,1.22-.67a.71.71,0,0,1,.76.66v.11c-.09.56-.39,1.73-1.15,1.72a4.16,4.16,0,0,1-2,.38.32.32,0,0,0-.35.29h0a3.56,3.56,0,0,1-4.17,2.82,3.84,3.84,0,0,1-.83-.27.23.23,0,1,0-.21.41,3.65,3.65,0,0,0,5.1-.79,3.59,3.59,0,0,0,.69-1.8c1.81.06,3.75-1.24,3.49-3.28C318.74,210.75,318.41,210.25,317.75,210.29Z" fill="#ffab91"/>
                  </g>
                  <path d="M308.58,219.86l-1-6a199.8,199.8,0,0,0-20.79,4.75,9.65,9.65,0,0,1-5.8-.15l-31.88-11.19,3,21.92,29.79,4a9.63,9.63,0,0,0,4.81-.61,134.32,134.32,0,0,0,21-10.63,2,2,0,0,0,.77-.69A2.11,2.11,0,0,0,308.58,219.86Z" fill="#424242"/>
                </g>
                <path d="M302.22,217.16c-.21-.91-1.62-.74-1.45.19a36.85,36.85,0,0,0,.94,4.29c.24.76,1.38.37,1.3-.36A34,34,0,0,0,302.22,217.16Z" fill="#212121"/>
              </g>
              <path d="M245.91,203.09l-1.31-1a47.34,47.34,0,0,0,4.06,10.67c2.25,4.15,3.86,8.61,5.72,13a39.49,39.49,0,0,1,2.51,6c.55,2.47.25,5,.3,7.46.13,5.47.57,10.64.09,16.18a45.65,45.65,0,0,1-1,7.9c-.46,1.7-1.57,3.47-1.3,5.24a25.85,25.85,0,0,0,8.24-2.14A109.48,109.48,0,0,0,245.91,203.09Z" fill="#212121"/>
              <path d="M268.12,255.38a5.62,5.62,0,0,0,2.43.69c.36,0,.49-.57.2-.76-.72-.47-1.54-.72-2.25-1.24-.52-.4-1-.87-1.49-1.25-2.68-9.26-3-19.79-7.24-28.58-3.68-7.56-8.14-15.73-14.86-21,13.25,20.52,18.38,44.25,17.26,69,2.37-1.06,6.62-.84,8.6-2.53C276.43,264.83,270.9,260.35,268.12,255.38Z" fill="#424242"/>
              <g>
                <path d="M235.15,323c3.63-5.89,8.51-16.46,11.15-22.16-3.45-7.62-7-6.27-14.27-9.82-.15.59-6,12.09-7.59,18.68a125.06,125.06,0,0,0-32.1,5.61l-.09,3.69A102,102,0,0,1,235.15,323Z" fill="url(#7ad6d5e4-1488-4185-be65-1e3081ddd8a4)"/>
                <path d="M235.15,323c3.63-5.89,14.56-17.71,17.21-23.41-12.92-1-22.11-3.78-29.43-7.33-.14.59,3.07,10.85,1.51,17.44a125.06,125.06,0,0,0-32.1,5.61l-.09,3.69A102,102,0,0,1,235.15,323Z" fill="#212121"/>
                <path d="M185.38,315.74a1,1,0,0,0-.66.28,1,1,0,0,0-.14.65l.09,3.94,2.25.46a2.08,2.08,0,0,0-1.87,1.62,6,6,0,0,0,.07,2.64c.22,1.27.45,2.54.67,3.81a7.54,7.54,0,0,0,.94,2.92,2.53,2.53,0,0,0,2.64,1.17c.42-.5,0-1.24-.31-1.8a7.36,7.36,0,0,1,2.39-9.95c-.1.07-1-5.27-1.28-5.57C189.06,314.65,186.83,315.52,185.38,315.74Z" fill="#212121"/>
              </g>
              <g>
                <path d="M252.36,299.61l20.31-8.85a136.09,136.09,0,0,0,25.85,24.32l3.28-2.32a111.2,111.2,0,0,1-24.53-40c-8.23.76-12,.5-20,2.42a63.24,63.24,0,0,0-1.89-6.62c-9.14,2.2-38.45-13.38-40.39-2.5-1,5.44-7.06,24.81,4.23,33C228.28,305.65,245.34,302.66,252.36,299.61Z" fill="#424242"/>
                <path d="M244.54,281.31a8.38,8.38,0,0,1-3.92-.12c5.19-3.21,12-3.63,15.76-9.31-.31-1.14-.64-2.26-1-3.34-9.14,2.2-38.45-13.38-40.39-2.5-.5,2.81-2.35,9.32-2.49,16.09A37.18,37.18,0,0,0,244.54,281.31Z" fill="#333"/>
                <path d="M303.42,320.89a1.08,1.08,0,0,0,.68.39,1,1,0,0,0,.65-.3l3.38-2.65c-.35-.76-.71-1.51-1.07-2.27a2.24,2.24,0,0,0,2.63.57,6.55,6.55,0,0,0,2.26-1.78l2.89-3.07a8.15,8.15,0,0,0,1.92-2.73,2.71,2.71,0,0,0-.7-3.06c-.71,0-1.09.79-1.37,1.45a8,8,0,0,1-10.23,4.4c.13.05-3.94,4.33-4,4.76C300.07,318.39,302.28,319.77,303.42,320.89Z" fill="#212121"/>
              </g>
              <path d="M220.46,258a8,8,0,0,0,2.1-3.12,3.16,3.16,0,0,0-.31-2.37,1.52,1.52,0,0,1,.22-1.95h0c.57-5.36,1.14-10.77.58-16.13-.39-3.78-1.34-7.49-1.7-11.27a36.69,36.69,0,0,1,1.73-15c.93-2.76,2.31-5.54,4.76-7.09a14.47,14.47,0,0,1,6.43-1.74c3.15-.31,6.53-.44,9.28,1.15,2.56,1.48,4.12,4.19,5.53,6.79,4.76,8.75,9.27,17.93,10.34,27.83.64,5.83.05,11.71-.53,17.54l-1.11,11.07c-.44,4.31.8,7.09-3.37,9.7a23.35,23.35,0,0,1-12.66,3.07C233.73,276.36,208.9,270.29,220.46,258Z" fill="#fff1ec"/>
              <path d="M235.39,271.49c-1.45-1.1-3-2.85-2.44-3.57,4.59-4.53,12.43-4.3,14.12-11-4.65-.67-7.87,4.33-12.69,2.38,8.45-9.61,15.74-23,9.44-35.77-4-8.58-13.46-12.92-17.59-21.05a15.65,15.65,0,0,0-3.14,5.74,36.69,36.69,0,0,0-1.73,15c.36,3.78,1.31,7.49,1.7,11.27.56,5.36,0,10.77-.58,16.13h0a1.52,1.52,0,0,0-.22,1.95,3.16,3.16,0,0,1,.31,2.37,8,8,0,0,1-2.1,3.12c-11.56,12.26,13.27,18.33,21.3,18.47q1.38,0,2.79-.09A31.45,31.45,0,0,0,235.39,271.49Z" fill="#cdd8dc"/>
              <path d="M244.89,199.67a2.39,2.39,0,0,1,1.22,1.76,3.54,3.54,0,0,1-.08.92l-.42,2.35a.3.3,0,0,1-.11.23c-.12.07-.26-.05-.35-.15l-1.92-2.21a2.25,2.25,0,0,1-.37-.54,2,2,0,0,1-.12-.64c0-.54-.38-2,.1-2.32S244.54,199.46,244.89,199.67Z" fill="#fff1ec"/>
              <g>
                <g>
                  <path d="M267.39,159.17a31.06,31.06,0,0,0-4.18-3.84c-2.72-6.34-5.9-12.53-9.07-18.66a12.83,12.83,0,0,0-2.68-3.88,11.1,11.1,0,0,0-4.15-2,48.52,48.52,0,0,0-9.91-2,8.23,8.23,0,0,0-9,7.42,8.52,8.52,0,0,0,0,1,71.43,71.43,0,0,0,.58,7.45,3.42,3.42,0,0,1-2.28,3.71,4.22,4.22,0,0,0-2.87,4.61,139.63,139.63,0,0,0,3.33,15.68,4.85,4.85,0,0,0-8.28,1.42c-.82,2.58.44,4.74,2.2,6.49,2,2,6.77,2.88,7.69-.8,1.3,2.32,2.21,7.73,2.69,10.4a57.27,57.27,0,0,1,.72,9.61c0,1.13,0,2.26-.08,3.39,0,.41-.52,2.88-.29,3.1a9,9,0,0,0,11.67.7c-.13-3.69.07-7.67-.75-11.27a33.77,33.77,0,0,0,19.63-.61c2.52-.85,5.06-2.11,6.53-4.33,1.86-2.81,1.6-6.49,1-9.81a81.61,81.61,0,0,0-2-8.62c1.62-.49,3.07-1.14,3.46-1.87C272.5,164.43,268.86,160.78,267.39,159.17Z" fill="#ffccbc"/>
                  <path d="M239.22,185c.28,6.39,1.36,13.51-.65,19.79a8.57,8.57,0,0,0,4.93-1.8c-.13-3.69.07-7.67-.75-11.27a33.77,33.77,0,0,0,19.63-.61c2.52-.85,5.06-2.11,6.53-4.33a8,8,0,0,0,.83-1.66C260.57,190.4,249.12,187.55,239.22,185Z" fill="url(#dd1b9de2-397a-42d3-8835-2c0393e05b4f)"/>
                  <path d="M253.35,174a4.9,4.9,0,0,1-1.33.57,9.49,9.49,0,0,0,.7.72c2.48,2.32,7.15,4.15,10.16,3.15C261.34,174.74,256.87,172.48,253.35,174Z" fill="#b71c1c"/>
                  <path d="M263.78,171.18l-.09-.1a2.19,2.19,0,0,0-.94-.52c-2.53-.79-7.77-.13-10,.75-2,.76-1.9,1.91-.7,3.29a4.9,4.9,0,0,0,1.33-.57c3.52-1.55,8,.71,9.53,4.44h0a1.91,1.91,0,0,0,.8-.44,2,2,0,0,0,.42-1,14.11,14.11,0,0,0,0-4.85A2.11,2.11,0,0,0,263.78,171.18Z" fill="#691010"/>
                  <path d="M243.92,140.12a5.66,5.66,0,0,0-5.91,1.64c-.43.56,0,1.58.81,1.26a20.07,20.07,0,0,1,2.34-1,26.23,26.23,0,0,1,2.63-.44.75.75,0,0,0,.13-1.46Z" fill="#424242"/>
                  <path d="M254,138.41a3.55,3.55,0,0,0-3.9.94c-.41.57.33,1.17,1,1,.43-.1.81-.27,1.25-.35s.82-.09,1.22-.13C254.39,139.78,254.84,138.76,254,138.41Z" fill="#424242"/>
                  <path d="M262.77,182.11c-2,.32-3.76,1.21-5.7.2-.89-.47-1.84.79-1,1.46,2,1.68,6.1,2.47,7.53-.41C263.83,182.84,263.45,182,262.77,182.11Z" fill="#ffab91"/>
                  <path d="M270.3,165.94a22.45,22.45,0,0,1-2.09.87c-.75.18-1.54-.05-2.26.17a.83.83,0,0,0-.52,1.05.87.87,0,0,0,.22.34c.77.74,2.22.61,3.17.31a3.32,3.32,0,0,0,2.31-2,.65.65,0,0,0-.83-.74Z" fill="#ffab91"/>
                  <path d="M225.83,173.77c-.61-.13-1.31,0-1.7-.61s0-1.06.27-1.59a1.33,1.33,0,0,0-.65-1.77l-.11,0a2.62,2.62,0,0,0-3.42,1.44,2.72,2.72,0,0,0-.19,1,.64.64,0,0,0,1.26.12,2.84,2.84,0,0,1,.7-1.21,1.22,1.22,0,0,1,.63-.36c.49,0,.52.29.44.64a2.76,2.76,0,0,0,0,2c.44.94,2.11,1.82,2.89.77a.23.23,0,0,0,0-.32A.26.26,0,0,0,225.83,173.77Z" fill="#ffab91"/>
                </g>
                <path d="M246.82,153.57a1.57,1.57,0,1,0,1.76,1.34A1.58,1.58,0,0,0,246.82,153.57Z" fill="#424242"/>
                <path d="M258.28,150.55a1.48,1.48,0,0,0,.4,2.94h0a1.48,1.48,0,0,0-.4-2.94Z" fill="#424242"/>
                <path d="M265.08,179.52c-.41-.56-1.57-.73-1.92,0a.25.25,0,0,0,.07.28,2.93,2.93,0,0,0,.53.33c.21.11.37.27.58.39a.63.63,0,0,0,.75-.2A.65.65,0,0,0,265.08,179.52Z" fill="#fff1ec"/>
              </g>
              <path d="M229.89,200.53c-.32-1.12,1.33-3.11,2.31-3.72,2.31,1.82,3.48,3.95,6.17,5.12a7.2,7.2,0,0,1,1.41.72c1.25.92,1.64,2.58,2,4.09a.9.9,0,0,1-.05.38.4.4,0,0,1-.34,0C237.59,206.63,231.1,204.74,229.89,200.53Z" fill="#94a7b1"/>
              <path d="M243,229.86c-1.14,6.47-4.6,12.3-7.9,17.88A147.14,147.14,0,0,1,224,263.55c-2.45,3.12-5.22,7.25-5.42,11.16-3.88.61-10.78-8.22-13-10.9a27.28,27.28,0,0,1-5.41-14.8c5.35-.47,9.7-4.43,14.24-6.93-1-2.86,2.84-2.26,4.29-4.17s1.53-5.14,1.67-7.32c.38-5.77-.48-11.85-.08-17.54.68-9.62,10.3-15.6,10.07-14.27-.55,3.31,6.94,10.61,8.73,13.38a24.47,24.47,0,0,1,4,17Z" fill="#424242"/>
              <g>
                <path d="M163.38,258.77c1.19.94,3.16,1.24,4.27.14a4.22,4.22,0,0,0,1,.6,2.38,2.38,0,0,1-1.05.66,4.3,4.3,0,0,1-.87.16,3,3,0,0,0-1.43.13,1.23,1.23,0,0,0-.52,1.67,1,1,0,0,0,.16.24c.91,1.06,2.95.65,3.88-.21A3.43,3.43,0,0,0,170,259.9a7,7,0,0,0,.79.07,9.21,9.21,0,0,0,3.85-1c2.28-1,7-3.51,7.93-6.15,1.26-3.81-4.45-2.08-6.41-1.54l-6,1.65a9.15,9.15,0,0,0-2.15.81.85.85,0,0,1,.07-.41.58.58,0,0,0-1-.5,1.84,1.84,0,0,0-.15,1.36.58.58,0,0,0,.2.31l-.16.2a2.62,2.62,0,0,0-.32.65h0a1.86,1.86,0,0,1-.26-1.26c0-1-1.45-1.3-1.69-.32a3.1,3.1,0,0,0,.72,2.69,2.12,2.12,0,0,0,1.12.71h.12a1.4,1.4,0,0,0,.09.29c-.54.28-1.19.37-1.45-.32a1.24,1.24,0,0,0-1.67-.54,1.38,1.38,0,0,0-.25.17,1.27,1.27,0,0,0-.19,1.79A1.1,1.1,0,0,0,163.38,258.77Z" fill="#ffccbc"/>
                <path d="M222,205.08l-40.37,13.36a134.85,134.85,0,0,0-6,30.95,2.12,2.12,0,0,0,.1,1,2.17,2.17,0,0,0,1.08.9l5.43,2.71a198.93,198.93,0,0,0,11-27L226,222.2a8.82,8.82,0,0,0,7.47-10,6.36,6.36,0,0,0-.14-.76h0a8.84,8.84,0,0,0-10.65-6.55C222.45,204.94,222.22,205,222,205.08Z" fill="#424242"/>
                <g>
                  <g>
                    <path d="M180.14,247.57a1.42,1.42,0,0,0,.13-2l-.07-.07a1.4,1.4,0,1,0-2.24,1.68,1.07,1.07,0,0,0,.14.16l.06.07A1.41,1.41,0,0,0,180.14,247.57Z" fill="#cfd8dc"/>
                    <path d="M182,241.17a1.3,1.3,0,1,0-1.84-.12A1.32,1.32,0,0,0,182,241.17Z" fill="#cfd8dc"/>
                  </g>
                  <path d="M179.43,235.82a20.78,20.78,0,0,0,7.06,2.89.3.3,0,1,0,.19-.57c-2.38-.86-4.61-1.94-6.91-3C179.36,234.94,179.08,235.58,179.43,235.82Z" fill="#212121"/>
                </g>
              </g>
              <path d="M219.07,256.33a14.42,14.42,0,0,0-2.33,2.48,22.73,22.73,0,0,1-2.63-3.16c-.82-1.19-2.14-2.67-2.27-4.13-.11-1.28.5-.83.78-1.83a.79.79,0,0,0-.14-.9.25.25,0,0,0-.34,0c-1.3.89-2.69,1.73-2,3.45,1.18,3,4.2,5.36,6.28,7.66a.5.5,0,0,0,.69.09,14.47,14.47,0,0,0,2.71-2.87C220.16,256.6,219.54,255.93,219.07,256.33Z" fill="#212121"/>
              <path d="M232.92,226c-1.34-.06-2.68.05-4-.11s-2.57-.68-3.89-.85a.22.22,0,0,0-.25.19.22.22,0,0,0,.05.17c1.83,2,5.81,2.53,8.25,1.63a.54.54,0,0,0,.27-.71A.52.52,0,0,0,232.92,226Z" fill="#212121"/>
              <path d="M236.94,218.45c-1.63-2.07-3.94-2.34-6.23-3.34-3.06-1.33-2.7-3.9-2.67-6.8,0-2.18.08-4.38-.11-6.55a.39.39,0,0,0-.77,0,69.34,69.34,0,0,0-.38,9,6.32,6.32,0,0,0,.75,3.64c1.66,2.56,5.24,2.44,7.55,4.14-.87.2-1.75.4-2.62.58-.3.06-.6.41-.42.73a32.72,32.72,0,0,1,3.74,9.12c.67,2.92.64,5.91,1.2,8.83a.42.42,0,0,0,.48.35.42.42,0,0,0,.35-.35c1.08-5.78-1.64-12.69-4.45-17.75l3.16-.5a.66.66,0,0,0,.59-.73A.74.74,0,0,0,236.94,218.45Z" fill="#212121"/>
              <path d="M262,217.33a110.5,110.5,0,0,0-8.51-7.67c-.33-.25-.8.21-.52.54a100.4,100.4,0,0,0,7.42,7.6,8,8,0,0,1-2.63,1,.63.63,0,0,0-.29,1.12c4.58,3.25,2.63,9,2.51,13.76a.21.21,0,0,0,.42,0h0c.27-1.81.37-3.65.56-5.47.17-1.61.75-3.6.51-5.2a5.68,5.68,0,0,0-2.25-3.33,11.41,11.41,0,0,0,2.63-1.15.73.73,0,0,0,.3-1A.75.75,0,0,0,262,217.33Z" fill="#212121"/>
              <path d="M191.33,224.87a3.2,3.2,0,0,0-1.07-1c-.42-.29-.85-.57-1.28-.82a.45.45,0,0,0-.61.13.45.45,0,0,0,.07.56,15.1,15.1,0,0,0,1.14,1,3.41,3.41,0,0,0,1.24.77.48.48,0,0,0,.53-.44A.44.44,0,0,0,191.33,224.87Z" fill="#212121"/>
              <path d="M192.22,225a22.14,22.14,0,0,0-1.21-2.44c-.15-.28-.59-.1-.46.2a23.17,23.17,0,0,0,1.23,2.5C191.94,225.54,192.31,225.29,192.22,225Z" fill="#212121"/>
              <path d="M223.41,218a5.14,5.14,0,0,0-1,1.52,9.57,9.57,0,0,0-.79,1.76c-.17.48.53,1,.83.47a10.62,10.62,0,0,0,.9-1.82,5.34,5.34,0,0,0,.51-1.75.28.28,0,0,0-.32-.24A.31.31,0,0,0,223.41,218Z" fill="#212121"/>
              <path d="M224.1,221.24a18.87,18.87,0,0,0-2.11,1.17c-.4.24,0,.93.42.71a16.64,16.64,0,0,0,2.08-1.22.39.39,0,0,0,0-.55A.41.41,0,0,0,224.1,221.24Z" fill="#212121"/>
              <path d="M282,221.73a13.15,13.15,0,0,0-.73,2.82.43.43,0,0,0,.82.22,13.53,13.53,0,0,0,.78-2.8.46.46,0,0,0-.42-.49A.44.44,0,0,0,282,221.73Z" fill="#212121"/>
              <path d="M284.31,222.44a.3.3,0,0,0-.4-.13.31.31,0,0,0-.16.21,10.72,10.72,0,0,0,.23,2.65.41.41,0,0,0,.81-.11A10.62,10.62,0,0,0,284.31,222.44Z" fill="#212121"/>
              <path d="M245.36,208.56a.56.56,0,0,0-.39.69.57.57,0,0,0,.54.41.56.56,0,0,0,.39-.69A.57.57,0,0,0,245.36,208.56Z" fill="#f2efee"/>
              <path d="M250.25,221.7a.74.74,0,1,0,.84.63A.75.75,0,0,0,250.25,221.7Z" fill="#f2efee"/>
              <path d="M253.08,237.71a.62.62,0,1,0,.61.46A.62.62,0,0,0,253.08,237.71Z" fill="#f2efee"/>
              <path d="M252.59,255.61a.68.68,0,1,0,.68.52A.68.68,0,0,0,252.59,255.61Z" fill="#f2efee"/>
              <path d="M251.63,268.84a.76.76,0,1,0,.77.59A.76.76,0,0,0,251.63,268.84Z" fill="#f2efee"/>
              <path d="M245.61,206.65a.14.14,0,0,0-.25.14c2.33,5,5,9.71,6.71,15a82.34,82.34,0,0,1,3.67,17c1.24,11.45.58,23.55-3.32,34.45-.14.39.48.63.59.24,3.21-11.22,4.93-22.58,3.58-34.25C255.33,228.28,252.07,215.74,245.61,206.65Z" fill="#cdd8dc"/>
            </g>
            <g opacity="0.46">
              <path d="M228.16,236.63c7.67-1.62,15.29-4.54,19.52-11.18,4.65-5.72,4.42-16.45-3.45-19.94.7,1.66,4.38,9.56-2.13,15.58-10.77,12.31-29.79,1-36.76-10.5l-18.27,6a50.2,50.2,0,0,0,7.77,10.11l25.53-3.7c.09,2.54.16,5.08,0,7.57-.13,2-.24,4.92-1.37,6.83A42.68,42.68,0,0,0,228.16,236.63Z" fill="#6c7d85"/>
            </g>
            <g>
              <g>
                <path d="M245.45,210.53a5.52,5.52,0,0,1-.09,1.15l-.12.56a7.09,7.09,0,0,1-.26.93,10.3,10.3,0,0,1-.51,1.3,11.29,11.29,0,0,1-1.53,2.35,12.5,12.5,0,0,1-1.45,1.46,15.06,15.06,0,0,1-1.71,1.26,17.1,17.1,0,0,1-1.77,1,24.4,24.4,0,0,1-3.6,1.45c-.69.21-1.38.41-2.08.57a38.47,38.47,0,0,1-4.26.79l-.61.08c-.49,0-1,.1-1.46.13h0a35.56,35.56,0,0,1-6.19-.1c-.77-.07-1.53-.17-2.29-.28a51.15,51.15,0,0,1-5.2-1.11c-.66-.18-1.31-.36-2-.57-2.11-.64-4.18-1.4-6.23-2.24-.79-.31-1.56-.64-2.34-1l-.24-.1-3.43-1.51c-.88-.39-1.76-.74-2.64-1.07a23,23,0,0,0-3.9-1.09c-1.07-1.6-2.14-3.2-3.24-4.78a29.41,29.41,0,0,0-4-5.26,53.88,53.88,0,0,1,7.36-3.3l1.37-.49c1.21-.43,2.44-.84,3.67-1.22.28.2.54.41.8.61s.8.61,1.14.83l.91.59c1.56,1,3.09,2.06,4.61,3.11l2,1.36,1.58,1.08c1.15.78,2.33,1.56,3.56,2.32h0c.72.46,1.45.9,2.2,1.33h0c1.43.82,2.91,1.59,4.4,2.28l2.31,1a30,30,0,0,0,4.65,1.41c.57.13,1.13.23,1.7.31a21.08,21.08,0,0,0,3.64.25,8.94,8.94,0,0,0,1.71-.11,19.12,19.12,0,0,0,3-.57c.53-.15,1.06-.32,1.59-.52a17,17,0,0,0,1.58-.67l.9-.44c.5-.24,1-.53,1.58-.85a10.61,10.61,0,0,0,1.06-.68,8.42,8.42,0,0,0,1.56-1.36,4,4,0,0,0,.89-1.63,3.75,3.75,0,0,0-.15-1.85,3.86,3.86,0,0,1-1.89-1.87c.91-.17,1.55-1,2.42-1.17a11.11,11.11,0,0,0,.3,3.25h-.17A7.88,7.88,0,0,1,245.45,210.53Z" fill="#ffe0b2"/>
                <path d="M198.1,216.67c-.88-.39-1.76-.74-2.64-1.07-.5-2.29-.88-4.63-1.48-6.81-.7-2.55-1.44-5.1-2.25-7.62l1.37-.49c1.05,2.67,2,5.35,2.81,8.12C196.64,211.29,197.58,214,198.1,216.67Z" fill="#fbe9e7"/>
                <path d="M204.11,219.26c-.79-.31-1.56-.64-2.34-1-.4-2.66-.76-5.35-1.37-8-.79-3.45-1.78-6.85-2.83-10.23.41.32.8.61,1.14.83l.91.59c1,2.9,1.87,5.86,2.6,8.85S203.68,216.24,204.11,219.26Z" fill="#fbe9e7"/>
                <path d="M212.31,222.07c-.66-.18-1.31-.36-2-.57-1.25-2.67-2.07-5.63-3.05-8.36s-2.06-5.68-3.06-8.54l2,1.36c.88,2.22,1.75,4.46,2.62,6.68C210,215.72,211.55,218.84,212.31,222.07Z" fill="#fbe9e7"/>
                <path d="M219.8,223.46c-.77-.07-1.53-.17-2.29-.28-.92-1.89-1.68-3.92-2.52-5.75-1.24-2.68-2.48-5.35-3.64-8.07.72.46,1.45.9,2.2,1.33h0c1,2,2,4,2.93,6S218.88,221.14,219.8,223.46Z" fill="#fbe9e7"/>
                <path d="M228.07,223.35l-.61.08c-.49,0-1,.1-1.46.13h0A72.73,72.73,0,0,1,218,213l2.31,1C222.9,217,225.54,220.17,228.07,223.35Z" fill="#fbe9e7"/>
                <path d="M234.41,222c-.69.21-1.38.41-2.08.57a36.74,36.74,0,0,1-7.42-7.21c.57.13,1.13.23,1.7.31q1.8,1.71,3.7,3.29C231.63,220,233,221,234.41,222Z" fill="#fbe9e7"/>
                <path d="M239.78,219.54a17.1,17.1,0,0,1-1.77,1,30.69,30.69,0,0,1-7.76-4.63,8.94,8.94,0,0,0,1.71-.11c1.2.71,2.44,1.37,3.69,2S238.43,218.91,239.78,219.54Z" fill="#fbe9e7"/>
                <path d="M242.94,216.82a12.5,12.5,0,0,1-1.45,1.46,27.3,27.3,0,0,1-6.49-3.05l1.59-.52c1.45.57,2.9,1.16,4.39,1.61C241.63,216.51,242.28,216.67,242.94,216.82Z" fill="#fbe9e7"/>
                <path d="M245,213.17a10.3,10.3,0,0,1-.51,1.3,41,41,0,0,1-5.4-.87l1.58-.85A41.22,41.22,0,0,0,245,213.17Z" fill="#fbe9e7"/>
                <path d="M245.45,210.53a5.52,5.52,0,0,1-.09,1.15l-.12.56a15.46,15.46,0,0,1-3.53-.17,8.42,8.42,0,0,0,1.56-1.36,16.1,16.1,0,0,0,1.83-.14Z" fill="#fbe9e7"/>
              </g>
              <path d="M245,209.43c-.59,1.32.11,2.58-1.76,3.95-16.81,14.29-39.77,5.61-54.48-6,1.13,2.51,1.87,5,3.14,7.22a23.93,23.93,0,0,1,3.52,1c.88.33,1.76.68,2.64,1.07,1.14.48,2.28,1,3.43,1.51l.24.1,2.34,1a64.85,64.85,0,0,0,6.23,2.24c.66.21,1.31.39,2,.57a51.15,51.15,0,0,0,5.2,1.11c.76.11,1.52.21,2.29.28a35.56,35.56,0,0,0,6.19.1h0a13.66,13.66,0,0,0,1.46-.13l.61-.08a38.47,38.47,0,0,0,4.26-.79c.7-.16,1.39-.36,2.08-.57a24.4,24.4,0,0,0,3.6-1.45,17.1,17.1,0,0,0,1.77-1,15.06,15.06,0,0,0,1.71-1.26,12.5,12.5,0,0,0,1.45-1.46,11.29,11.29,0,0,0,1.53-2.35,10.3,10.3,0,0,0,.51-1.3,7.09,7.09,0,0,0,.26-.93l.12-.56a5.52,5.52,0,0,0,.09-1.15,6.33,6.33,0,0,0-.2-1.44A1.14,1.14,0,0,1,245,209.43Z" fill="#ffe0b2" opacity="0.7" style="isolation: isolate"/>
            </g>
          </g>
          <g>
            <polygon points="83.54 452.28 77.95 446.54 189.48 337.98 256.44 371.68 381.01 260.33 386.34 266.3 257.7 381.29 190.98 347.69 83.54 452.28" fill="#ddd"/>
            <circle cx="390.98" cy="258.05" r="13.34" fill="#ddd"/>
            <path d="M398.67,258.05a7.69,7.69,0,1,1-7.69-7.69,7.69,7.69,0,0,1,7.69,7.69Z" fill="#d32f2f"/>
          </g>
        </g>
      </g>
    </g>
  </g>
</svg>
