<svg id="b6bac665-084f-4515-8fd6-7afaea65553b" data-name="3ab727ee-b75f-4bab-ba76-0f04881d23a6" xmlns="http://www.w3.org/2000/svg" xmlns:xlink="http://www.w3.org/1999/xlink" viewBox="0 0 496.78 274">
  <defs>
    <clipPath id="66c64fe6-f807-4b8f-be52-cc6bfc523474">
      <rect width="496.78" height="274" fill="#fff"/>
    </clipPath>
  </defs>
  <title>work</title>
  <g>
    <rect width="496.78" height="274" fill="#fff"/>
    <g clip-path="url(#66c64fe6-f807-4b8f-be52-cc6bfc523474)">
      <g>
        <g>
          <path d="M120.16,182.26a23.35,23.35,0,0,1-6-30.68,23,23,0,0,1,31.52-8l.2.12a23.35,23.35,0,0,1,7.85,31.93,23,23,0,0,1-29.75,9" fill="#bdbdbd" stroke="#3894e7" stroke-miterlimit="10" stroke-width="1.09"/>
          <path d="M125.61,177.52a16.33,16.33,0,0,1-5.49-22.32,16.12,16.12,0,0,1,22.11-5.56l.07,0A16.33,16.33,0,0,1,147.78,172a16.11,16.11,0,0,1-22.09,5.57Z" fill="#fff" stroke="#3894e7" stroke-miterlimit="10" stroke-width="1.09"/>
          <polygon points="103.67 224.47 94.58 218.95 112.26 189.46 121.35 194.98 103.67 224.47" fill="#fff" stroke="#3894e7" stroke-miterlimit="10" stroke-width="1.09"/>
          <line x1="108.66" y1="195.45" x2="117.76" y2="200.98" fill="none" stroke="#3894e7" stroke-miterlimit="10" stroke-width="1.09"/>
          <path d="M124.09,184.41l-5.24,8.73L115,190.82l5.23-8.73c.61.42,1.23.83,1.88,1.22S123.43,184.07,124.09,184.41Z" fill="#fff" stroke="#3894e7" stroke-miterlimit="10" stroke-width="0.89"/>
        </g>
        <path d="M10.19,178.67a.5.5,0,1,0,.5.5A.5.5,0,0,0,10.19,178.67Z"/>
        <g>
          <polygon points="381.62 194.86 322.3 211.12 301.16 132.99 353.02 118.78 362.31 123.48 381.62 194.86" fill="#fff" stroke="#3894e7" stroke-miterlimit="10"/>
          <polygon points="353.02 118.78 354.77 126.1 362.31 123.48 353.02 118.78" fill="#fff" stroke="#3894e7" stroke-miterlimit="10"/>
          <g>
            <line x1="318.32" y1="145.65" x2="350.81" y2="136.75" fill="none" stroke="#3894e7" stroke-linecap="round" stroke-linejoin="round"/>
            <line x1="320.03" y1="151.99" x2="352.53" y2="143.09" fill="none" stroke="#3894e7" stroke-linecap="round" stroke-linejoin="round"/>
            <line x1="321.75" y1="158.32" x2="354.24" y2="149.42" fill="none" stroke="#3894e7" stroke-linecap="round" stroke-linejoin="round"/>
            <line x1="323.46" y1="164.65" x2="355.95" y2="155.75" fill="none" stroke="#3894e7" stroke-linecap="round" stroke-linejoin="round"/>
            <line x1="325.17" y1="170.99" x2="357.67" y2="162.09" fill="none" stroke="#3894e7" stroke-linecap="round" stroke-linejoin="round"/>
            <line x1="326.89" y1="177.32" x2="359.38" y2="168.42" fill="none" stroke="#3894e7" stroke-linecap="round" stroke-linejoin="round"/>
            <line x1="328.6" y1="183.66" x2="361.09" y2="174.75" fill="none" stroke="#3894e7" stroke-linecap="round" stroke-linejoin="round"/>
            <line x1="330.31" y1="189.99" x2="362.81" y2="181.09" fill="none" stroke="#3894e7" stroke-linecap="round" stroke-linejoin="round"/>
          </g>
        </g>
        <g>
          <rect x="148.83" y="75.66" width="35.56" height="53.19" transform="translate(61.78 267.26) rotate(-89.11)" fill="none" stroke="#3894e7" stroke-miterlimit="10" stroke-width="1.15"/>
          <polygon points="139.75 119.63 166.76 93.37 192.94 120.46 139.75 119.63" fill="none" stroke="#3894e7" stroke-linecap="round" stroke-linejoin="round" stroke-width="1.15"/>
          <polygon points="140.3 84.16 166.58 105.04 193.49 84.99 140.3 84.16" fill="#fff" stroke="#3894e7" stroke-linecap="round" stroke-linejoin="round" stroke-width="1.23"/>
        </g>
        <g>
          <polyline points="227.06 179.32 230.52 182.91 226.95 186.39" fill="none" stroke="#3894e7" stroke-linecap="round" stroke-linejoin="round" stroke-width="1.07"/>
          <g>
            <polyline points="172.53 139.75 171.88 182 230.01 182.9" fill="none" stroke="#3894e7" stroke-linecap="round" stroke-linejoin="round" stroke-width="1.07"/>
            <rect x="168.13" y="152.72" width="37.5" height="11.26" transform="translate(25.26 342.41) rotate(-88.99)" fill="none" stroke="#3894e7" stroke-linecap="round" stroke-linejoin="round" stroke-width="1.07"/>
            <rect x="186.4" y="157.23" width="29.67" height="11.26" transform="translate(35.27 361.54) rotate(-89.11)" fill="#bdbdbd" stroke="#3894e7" stroke-linecap="round" stroke-linejoin="round" stroke-width="1.07"/>
            <rect x="207.52" y="164.11" width="16.37" height="11.26" transform="translate(42.63 382.78) rotate(-89.11)" fill="none" stroke="#3894e7" stroke-linecap="round" stroke-linejoin="round" stroke-width="1.07"/>
            <polyline points="169.13 142.47 172.7 139 176.15 142.59" fill="none" stroke="#3894e7" stroke-linecap="round" stroke-linejoin="round" stroke-width="1.07"/>
          </g>
        </g>
        <g>
          <ellipse cx="50.45" cy="170.37" rx="23.52" ry="23.67" fill="#fff" stroke="#3894e7" stroke-linecap="round" stroke-linejoin="round"/>
          <ellipse cx="50.45" cy="170.37" rx="16.55" ry="16.66" fill="#fff" stroke="#3894e7" stroke-linecap="round" stroke-linejoin="round"/>
          <path d="M50.07,178.84a8.47,8.47,0,1,1,8.79-8.13v0A8.47,8.47,0,0,1,50.07,178.84Z" fill="#fff" stroke="#3894e7" stroke-linecap="round" stroke-linejoin="round"/>
          <g>
            <line x1="78.85" y1="145.73" x2="49.02" y2="172.31" fill="none"/>
            <g>
              <line x1="78.85" y1="145.73" x2="49.83" y2="171.59" fill="none" stroke="#3894e7" stroke-linecap="round" stroke-linejoin="round"/>
              <polygon points="49.58 166.34 50.58 166.43 50.11 171.34 55.04 171.44 55.02 172.44 49.02 172.31 49.58 166.34" fill="#3894e7"/>
            </g>
          </g>
          <polygon points="70.99 152.73 69.92 144.49 79.32 135.84 78.85 145.73 70.99 152.73" fill="#fff" stroke="#3894e7" stroke-linecap="round" stroke-linejoin="round"/>
          <polygon points="71.21 152.97 79.27 154.78 88.67 146.14 78.85 145.73 71.21 152.97" fill="#fff" stroke="#3894e7" stroke-linecap="round" stroke-linejoin="round"/>
        </g>
        <g>
          <path d="M64.47,15.9l-.39,25.72a2.55,2.55,0,0,1-2.58,2.52h0l-4.91-.08-.13,8.29L50,44l-29.12-.45a2.55,2.55,0,0,1-2.5-2.6h0l.39-25.72a2.55,2.55,0,0,1,2.58-2.52h0L62,13.3A2.54,2.54,0,0,1,64.47,15.9Z" fill="#fff" stroke="#3894e7" stroke-linecap="round" stroke-linejoin="round"/>
          <g>
            <line x1="26.04" y1="19.87" x2="57.07" y2="20.35" fill="none" stroke="#3894e7" stroke-linecap="round" stroke-linejoin="round"/>
            <line x1="25.95" y1="25.2" x2="56.99" y2="25.68" fill="none" stroke="#3894e7" stroke-linecap="round" stroke-linejoin="round"/>
            <line x1="25.87" y1="30.53" x2="56.9" y2="31.02" fill="none" stroke="#3894e7" stroke-linecap="round" stroke-linejoin="round"/>
            <line x1="25.79" y1="35.87" x2="56.82" y2="36.35" fill="none" stroke="#3894e7" stroke-linecap="round" stroke-linejoin="round"/>
          </g>
        </g>
        <g>
          <g>
            <path d="M313.77,231a6.4,6.4,0,0,1-1.25,8.92,6.3,6.3,0,0,1-8.83-1.22l0,0a6.4,6.4,0,0,1,1.25-8.92,6.3,6.3,0,0,1,8.83,1.22Z" fill="none" stroke="#3894e7" stroke-linecap="round" stroke-linejoin="round"/>
            <path d="M322.33,230.2l-1.66,1.5c.13,2,.19,2.83.33,4.82l1.78,1.2a14.29,14.29,0,0,1-3.26,6.62l-2-.65-4,2.71-.14,2.07a14.17,14.17,0,0,1-7.33.56l-.44-2.12-4.31-2.11-2,1a15.79,15.79,0,0,1-2.12-2.28,14.8,14.8,0,0,1-2-3.79l1.73-1.55c-.14-2-.2-2.83-.33-4.82L294.64,232a14.18,14.18,0,0,1,3.17-6.59l2.22.74,4-2.7.15-2.36a14.22,14.22,0,0,1,7.26-.49l.49,2.33,4.31,2.12,2.07-1a13.74,13.74,0,0,1,1.89,2.07A14.57,14.57,0,0,1,322.33,230.2Z" fill="none" stroke="#3894e7" stroke-linecap="round" stroke-linejoin="round"/>
          </g>
          <g>
            <path d="M335.89,251.21l-1.08,1c.09,1.3.12,1.85.21,3.15l1.17.78a9.31,9.31,0,0,1-2.13,4.32l-1.28-.42-2.6,1.76-.09,1.36a9.14,9.14,0,0,1-4.78.36l-.29-1.38-2.81-1.38-1.31.65a10.31,10.31,0,0,1-1.39-1.49,9.72,9.72,0,0,1-1.33-2.48l1.13-1c-.09-1.3-.13-1.85-.21-3.15l-1.28-.86a9.28,9.28,0,0,1,2.07-4.3l1.45.48,2.6-1.76.1-1.54a9.42,9.42,0,0,1,4.74-.32l.32,1.52,2.81,1.38,1.36-.67a9.86,9.86,0,0,1,1.23,1.35A9.4,9.4,0,0,1,335.89,251.21Z" fill="#bdbdbd" stroke="#3894e7" stroke-linecap="round" stroke-linejoin="round"/>
            <path d="M330.31,251.72a4.18,4.18,0,0,1-.82,5.82,4.11,4.11,0,0,1-5.76-.79l0,0a4.17,4.17,0,0,1,.82-5.82,4.11,4.11,0,0,1,5.76.79Z" fill="#fff" stroke="#3894e7" stroke-linecap="round" stroke-linejoin="round"/>
          </g>
        </g>
        <g>
          <ellipse cx="183.9" cy="28.27" rx="10.97" ry="11.04" fill="#fff" stroke="#3894e7" stroke-linecap="round" stroke-linejoin="round"/>
          <path d="M191.78,28.39a7.88,7.88,0,1,1-7.76-8A7.89,7.89,0,0,1,191.78,28.39Z" fill="#fff" stroke="#3894e7" stroke-linecap="round" stroke-linejoin="round"/>
          <text transform="matrix(0.99, 0.02, -0.02, 1, 180.43, 32.52)" font-size="12" fill="none" stroke="#3894e7" stroke-miterlimit="10" font-family="ArialMT, Arial" style="isolation: isolate">$</text>
        </g>
        <g>
          <ellipse cx="368.73" cy="91.39" rx="10.97" ry="11.04" fill="#bdbdbd" stroke="#3894e7" stroke-linecap="round" stroke-linejoin="round"/>
          <ellipse cx="368.73" cy="91.39" rx="7.88" ry="7.93" fill="#fff" stroke="#3894e7" stroke-linecap="round" stroke-linejoin="round"/>
          <text transform="matrix(0.99, 0.02, -0.02, 1, 365.26, 95.64)" font-size="12" fill="none" stroke="#3894e7" stroke-miterlimit="10" font-family="ArialMT, Arial" style="isolation: isolate">$</text>
        </g>
        <g>
          <ellipse cx="136.57" cy="251.37" rx="10.97" ry="11.04" fill="#fff" stroke="#3894e7" stroke-linecap="round" stroke-linejoin="round"/>
          <ellipse cx="136.57" cy="251.37" rx="7.88" ry="7.93" fill="#fff" stroke="#3894e7" stroke-linecap="round" stroke-linejoin="round"/>
          <text transform="matrix(0.99, 0.02, -0.02, 1, 133.1, 255.62)" font-size="12" fill="none" stroke="#3894e7" stroke-miterlimit="10" font-family="ArialMT, Arial" style="isolation: isolate">$</text>
        </g>
        <g>
          <path d="M32.08,76a11,11,0,1,1-10.8-11.21A11,11,0,0,1,32.08,76Z" fill="#fff" stroke="#3894e7" stroke-linecap="round" stroke-linejoin="round"/>
          <ellipse cx="21.11" cy="75.78" rx="7.88" ry="7.93" fill="#fff" stroke="#3894e7" stroke-linecap="round" stroke-linejoin="round"/>
          <text transform="matrix(0.99, 0.02, -0.02, 1, 17.64, 80.03)" font-size="12" fill="none" stroke="#3894e7" stroke-miterlimit="10" font-family="ArialMT, Arial" style="isolation: isolate">$</text>
        </g>
        <g>
          <path d="M445.19,211.37a16.18,16.18,0,0,1,8.76,2.71l7.37-8.57a28,28,0,0,0-23.95-4.4l3.92,10.62A16,16,0,0,1,445.19,211.37Z" fill="none" stroke="#3894e7" stroke-linecap="round" stroke-linejoin="round"/>
          <path d="M461.42,228.22a16.59,16.59,0,0,1-6.79,13.17l5.33,10a28,28,0,0,0,4.71-42.94L457.3,217A16.59,16.59,0,0,1,461.42,228.22Z" fill="#bdbdbd" stroke="#3894e7" stroke-linecap="round" stroke-linejoin="round"/>
          <path d="M444.68,244.56a16.62,16.62,0,0,1-7.51-31.24l-3.91-10.63a27.9,27.9,0,0,0,11.24,53.14,27.54,27.54,0,0,0,11.56-2.35l-5.34-10A16.42,16.42,0,0,1,444.68,244.56Z" fill="none" stroke="#3894e7" stroke-linecap="round" stroke-linejoin="round"/>
        </g>
        <path d="M490.43,109.87A8.55,8.55,0,0,0,483,97.42a7.27,7.27,0,0,0-1.14.07,12.79,12.79,0,0,0-15-4.9,18.13,18.13,0,0,0-30.6,2.81,8.56,8.56,0,0,0-9.39,13.52Z" fill="#fff" stroke="#3894e7" stroke-miterlimit="10"/>
        <g>
          <rect x="161.97" y="208.76" width="56.07" height="46.26" transform="translate(-44.81 418.27) rotate(-89.11)" fill="#fff" stroke="#3894e7" stroke-linecap="round" stroke-linejoin="round" stroke-width="1.1"/>
          <rect x="182.49" y="199.42" width="15.5" height="34.03" transform="translate(-29.12 403.29) rotate(-89.11)" fill="#fff" stroke="#3894e7" stroke-linecap="round" stroke-linejoin="round"/>
          <g>
            <rect x="172.76" y="228.57" width="6.27" height="5.83" transform="translate(-58.29 403.76) rotate(-89.11)" fill="#fff" stroke="#3894e7" stroke-linecap="round" stroke-linejoin="round"/>
            <rect x="172.6" y="238.53" width="6.27" height="5.83" transform="translate(-68.41 413.41) rotate(-89.11)" fill="#fff" stroke="#3894e7" stroke-linecap="round" stroke-linejoin="round"/>
            <rect x="182.06" y="228.7" width="6.27" height="5.83" transform="translate(-49.27 413.19) rotate(-89.11)" fill="#fff" stroke="#3894e7" stroke-linecap="round" stroke-linejoin="round"/>
            <rect x="181.91" y="238.68" width="6.27" height="5.83" transform="translate(-59.39 422.86) rotate(-89.11)" fill="#fff" stroke="#3894e7" stroke-linecap="round" stroke-linejoin="round"/>
            <rect x="191.36" y="228.84" width="6.27" height="5.83" transform="translate(-40.25 422.63) rotate(-89.11)" fill="#fff" stroke="#3894e7" stroke-linecap="round" stroke-linejoin="round"/>
            <rect x="200.39" y="228.99" width="6.27" height="5.83" transform="translate(-31.51 431.8) rotate(-89.11)" fill="#fff" stroke="#3894e7" stroke-linecap="round" stroke-linejoin="round"/>
            <rect x="191.2" y="238.83" width="6.27" height="5.83" transform="translate(-50.4 432.3) rotate(-89.11)" fill="#fff" stroke="#3894e7" stroke-linecap="round" stroke-linejoin="round"/>
            <rect x="172.46" y="248.52" width="6.27" height="5.83" transform="translate(-78.54 423.1) rotate(-89.11)" fill="#fff" stroke="#3894e7" stroke-linecap="round" stroke-linejoin="round"/>
            <rect x="181.75" y="248.66" width="6.27" height="5.83" transform="translate(-69.53 432.53) rotate(-89.11)" fill="#fff" stroke="#3894e7" stroke-linecap="round" stroke-linejoin="round"/>
            <rect x="191.05" y="248.79" width="6.27" height="5.83" transform="translate(-60.51 441.96) rotate(-89.11)" fill="#fff" stroke="#3894e7" stroke-linecap="round" stroke-linejoin="round"/>
            <rect x="195.48" y="243.65" width="16.25" height="6.44" transform="translate(-46.4 446.62) rotate(-89.11)" fill="#bdbdbd" stroke="#3894e7" stroke-linecap="round" stroke-linejoin="round"/>
          </g>
        </g>
        <g>
          <path d="M466.34,146.32a18,18,0,1,0-25.87,16L443,174.51l9.78.15,2.9-12.09A18.11,18.11,0,0,0,466.34,146.32Z" fill="none" stroke="#3894e7" stroke-linecap="round" stroke-linejoin="round"/>
          <line x1="447.96" y1="169.99" x2="448.22" y2="153.17" fill="none" stroke="#3894e7" stroke-linecap="round" stroke-linejoin="round"/>
          <path d="M454.84,146.67a6.52,6.52,0,1,1-6.42-6.66,6.52,6.52,0,0,1,6.42,6.66Z" fill="#bdbdbd" stroke="#3894e7" stroke-linecap="round" stroke-linejoin="round"/>
          <line x1="442.23" y1="170.16" x2="453.68" y2="170.34" fill="none" stroke="#3894e7" stroke-linecap="round" stroke-linejoin="round"/>
          <line x1="442.7" y1="172.57" x2="453.14" y2="172.74" fill="none" stroke="#3894e7" stroke-linecap="round" stroke-linejoin="round"/>
          <rect x="446.41" y="172.16" width="2.89" height="7.73" transform="translate(264.89 621.09) rotate(-89.11)" fill="none" stroke="#3894e7" stroke-linecap="round" stroke-linejoin="round" stroke-width="0.91"/>
        </g>
        <path d="M430.85,27.36a2.34,2.34,0,1,1,0-.05Z" fill="#bdbdbd" stroke="#3894e7" stroke-linecap="round" stroke-linejoin="round"/>
        <path d="M212.23,35.13A2.27,2.27,0,1,1,210,32.81,2.28,2.28,0,0,1,212.23,35.13Z" fill="#fff" stroke="#3894e7" stroke-linecap="round" stroke-linejoin="round"/>
        <path d="M300.25,201a2.27,2.27,0,1,1-2.25-2.3,2.27,2.27,0,0,1,2.25,2.3Z" fill="#fff" stroke="#3894e7" stroke-linecap="round" stroke-linejoin="round"/>
        <path d="M419.51,263.69a2.27,2.27,0,1,1-2.23-2.32A2.28,2.28,0,0,1,419.51,263.69Z" fill="#fff" stroke="#3894e7" stroke-linecap="round" stroke-linejoin="round"/>
        <path d="M487.11,165.88a2.27,2.27,0,1,1-2.23-2.32A2.28,2.28,0,0,1,487.11,165.88Z" fill="#fff" stroke="#3894e7" stroke-linecap="round" stroke-linejoin="round"/>
        <path d="M26.45,203.3a2.27,2.27,0,1,1-2.24-2.3h0A2.28,2.28,0,0,1,26.45,203.3Z" fill="#fff" stroke="#3894e7" stroke-linecap="round" stroke-linejoin="round"/>
        <path d="M147.19,211.16a2.27,2.27,0,1,1-2.23-2.33,2.28,2.28,0,0,1,2.23,2.33Z" fill="#fff" stroke="#3894e7" stroke-linecap="round" stroke-linejoin="round"/>
        <path d="M44.29,263.69a2.27,2.27,0,1,1-2.23-2.32A2.28,2.28,0,0,1,44.29,263.69Z" fill="#fff" stroke="#3894e7" stroke-linecap="round" stroke-linejoin="round"/>
        <path d="M127.86,112.27a2.27,2.27,0,1,1-2.22-2.32,2.28,2.28,0,0,1,2.22,2.32Z" fill="#bdbdbd" stroke="#3894e7" stroke-linecap="round" stroke-linejoin="round"/>
        <path d="M64.37,67.56a2.27,2.27,0,1,1-2.22-2.32,2.28,2.28,0,0,1,2.22,2.32Z" fill="#bdbdbd" stroke="#3894e7" stroke-linecap="round" stroke-linejoin="round"/>
        <path d="M428.85,125a4.67,4.67,0,1,1-4.59-4.78,4.67,4.67,0,0,1,4.59,4.78Z" fill="#fff" stroke="#3894e7" stroke-linecap="round" stroke-linejoin="round"/>
        <path d="M180.82,63.57a4.67,4.67,0,1,1-4.59-4.78A4.67,4.67,0,0,1,180.82,63.57Z" fill="#fff" stroke="#3894e7" stroke-linecap="round" stroke-linejoin="round"/>
        <path d="M344.38,20.42a4.67,4.67,0,1,1-4.59-4.78A4.67,4.67,0,0,1,344.38,20.42Z" fill="#bdbdbd" stroke="#3894e7" stroke-linecap="round" stroke-linejoin="round"/>
        <path d="M85.65,17.31a4.67,4.67,0,1,1-4.59-4.78A4.67,4.67,0,0,1,85.65,17.31Z" fill="#bdbdbd" stroke="#3894e7" stroke-linecap="round" stroke-linejoin="round"/>
        <path d="M117.46,125a4.67,4.67,0,1,1-4.59-4.78,4.67,4.67,0,0,1,4.59,4.78Z" fill="#fff" stroke="#3894e7" stroke-linecap="round" stroke-linejoin="round"/>
        <ellipse cx="13.23" cy="175.35" rx="4.67" ry="4.7" fill="#bdbdbd" stroke="#3894e7" stroke-linecap="round" stroke-linejoin="round"/>
        <path d="M478.55,187.7a4.67,4.67,0,1,1-4.59-4.78A4.67,4.67,0,0,1,478.55,187.7Z" fill="#fff" stroke="#3894e7" stroke-linecap="round" stroke-linejoin="round"/>
        <g>
          <rect x="-10.56" y="221.42" width="57.36" height="29.55" fill="#bdbdbd" stroke="#3894e7" stroke-miterlimit="10"/>
          <path d="M39.81,251H-3.56a7,7,0,0,0-7-7V228.42a7,7,0,0,0,7-7H39.81a7,7,0,0,0,7,7V244A7,7,0,0,0,39.81,251Z" fill="#fff" stroke="#3894e7" stroke-miterlimit="10"/>
          <ellipse cx="18.13" cy="236.19" rx="10.06" ry="10.13" fill="#fff" stroke="#3894e7" stroke-miterlimit="10"/>
          <text transform="translate(14.22 240.7) scale(0.99 1)" font-size="12.81" fill="#3894e7" font-family="ArialMT, Arial" style="isolation: isolate">$</text>
          <g>
            <line x1="-5.03" y1="236.19" x2="3.75" y2="236.19" fill="none" stroke="#3894e7" stroke-miterlimit="10"/>
            <line x1="32.65" y1="236.19" x2="41.42" y2="236.19" fill="none" stroke="#3894e7" stroke-linecap="round" stroke-linejoin="round" stroke-width="1.5"/>
          </g>
        </g>
        <g>
          <path d="M339.67,99.78l-110.3,35.37a5,5,0,0,1-6.24-3.25L199.75,58.06A5,5,0,0,1,203,51.77h0L313.3,16.41a5,5,0,0,1,6.24,3.25L342.9,93.5A5,5,0,0,1,339.67,99.78Z" fill="none" stroke="#3894e7" stroke-miterlimit="10"/>
          <path d="M279.14,73.27a8.21,8.21,0,1,1-10.31-5.35h0a8.18,8.18,0,0,1,10.28,5.3Z" fill="#bdbdbd" stroke="#3894e7" stroke-miterlimit="10"/>
        </g>
        <g>
          <path d="M298.28,119.57l-3.55,3.29-5.51,6.56-7.86,10.75a37.59,37.59,0,0,1-5.88,6.34l-5.07,16h-18.9l-2-19.14h0l-.06-.22c-1.65-6-2.44-18.73,0-24.76L251.73,94a2.35,2.35,0,0,1,1-1.74,2.41,2.41,0,0,1,1.72-.47,2.46,2.46,0,0,1,1.44.68,2.37,2.37,0,0,1,.74,1.75h0l-.06,20.52,3-29.75a2.64,2.64,0,0,1,4.53-1.59,2.69,2.69,0,0,1,.73,1.84v.13l-1.1,25.31,2-31.47a2.69,2.69,0,0,1,4.74-1.57,2.74,2.74,0,0,1,.62,1.73v.07l-.67,31.36.95-26.52a3.69,3.69,0,0,1,.75-2.19l.05-.06a2.06,2.06,0,0,1,2.5-.75,2.71,2.71,0,0,1,1.31,1,3.29,3.29,0,0,1,.6,1.57,230.25,230.25,0,0,1,.82,37.41s.12,7.89,5.14,4.56c0,0,6.86-11.09,13-11.21C295.47,114.64,302.81,114.52,298.28,119.57Z" fill="#fff" stroke="#3894e7" stroke-miterlimit="10"/>
          <g>
            <rect x="245.36" y="152.66" width="32.76" height="19.68" fill="#fff" stroke="#3894e7" stroke-miterlimit="10"/>
            <path d="M248.77,163.1a2.39,2.39,0,1,0,2.39-2.41,2.39,2.39,0,0,0-2.39,2.41Z" fill="#0095ea"/>
          </g>
          <rect x="239.75" y="172.34" width="42.21" height="131.9" fill="#bdbdbd" stroke="#3894e7" stroke-miterlimit="10"/>
        </g>
        <g>
          <polygon points="410.83 193.41 349.42 196.28 345.69 115.39 399.38 112.88 407.43 119.5 410.83 193.41" fill="#fff" stroke="#3894e7" stroke-miterlimit="10"/>
          <line x1="359.66" y1="168.26" x2="393.29" y2="166.69" fill="none" stroke="#3894e7" stroke-miterlimit="10"/>
          <line x1="359.99" y1="174.68" x2="393.63" y2="173.11" fill="none" stroke="#3894e7" stroke-miterlimit="10"/>
          <line x1="360.33" y1="181.1" x2="393.97" y2="179.52" fill="none" stroke="#3894e7" stroke-miterlimit="10"/>
          <polygon points="399.38 112.88 399.5 120.41 407.43 119.5 399.38 112.88" fill="#fff" stroke="#3894e7" stroke-linecap="round" stroke-linejoin="round"/>
          <g>
            <path d="M379.5,133.66a9.4,9.4,0,0,1,3.78,3.67l6-2.45a15.85,15.85,0,0,0-11.07-8.46l-.74,6.44A8.67,8.67,0,0,1,379.5,133.66Z" fill="#bdbdbd" stroke="#3894e7" stroke-miterlimit="10"/>
            <path d="M383.45,146.49a9.43,9.43,0,0,1-6.86,4.95l.16,6.48a15.93,15.93,0,0,0,14.11-17.56,15.75,15.75,0,0,0-.66-3.12l-6,2.45A9.49,9.49,0,0,1,383.45,146.49Z" fill="#fff" stroke="#3894e7" stroke-miterlimit="10"/>
            <path d="M370.7,150.46a9.52,9.52,0,0,1-3.94-12.83,9.4,9.4,0,0,1,8.15-5.06l.74-6.45a15.84,15.84,0,0,0-14.56,8.5,16,16,0,0,0,6.62,21.55,15.74,15.74,0,0,0,6.5,1.81l-.15-6.48A9.46,9.46,0,0,1,370.7,150.46Z" fill="#fff" stroke="#3894e7" stroke-miterlimit="10"/>
          </g>
        </g>
        <g>
          <path d="M339.34,196.08l3.55,3.29,5.52,6.56,7.86,10.75a37.94,37.94,0,0,0,5.87,6.34l5.08,16h18.9l2-19.14h0l.06-.22c1.65-6,2.45-18.73,0-24.76l-2.28-24.34a2.44,2.44,0,0,0-2.65-2.21h0a2.45,2.45,0,0,0-2.18,2.43h0l.06,20.52-2.94-29.75a2.65,2.65,0,0,0-2.76-2.4,2.59,2.59,0,0,0-1.77.81,2.62,2.62,0,0,0-.74,1.84v.13l1.1,25.31-2-31.47a2.72,2.72,0,0,0-.94-1.88,2.68,2.68,0,0,0-3.77.27l0,0a2.69,2.69,0,0,0-.63,1.73V156l.68,31.36-1-26.52a3.77,3.77,0,0,0-.74-2.19l-.05-.06a2.09,2.09,0,0,0-2.51-.75,2.71,2.71,0,0,0-1.31,1,3.17,3.17,0,0,0-.59,1.57,228,228,0,0,0-.83,37.41s-.12,7.89-5.14,4.56c0,0-6.85-11.09-13-11.21C342.16,191.15,334.81,191,339.34,196.08Z" fill="#fff" stroke="#3894e7" stroke-miterlimit="10"/>
          <g>
            <rect x="359.5" y="229.17" width="32.76" height="19.68" fill="#fff" stroke="#3894e7" stroke-miterlimit="10"/>
            <path d="M388.85,239.61a2.39,2.39,0,1,1-2.39-2.41,2.39,2.39,0,0,1,2.39,2.41Z" fill="#0095ea"/>
          </g>
          <rect x="355.66" y="248.85" width="42.21" height="131.9" fill="#bdbdbd" stroke="#3894e7" stroke-miterlimit="10"/>
        </g>
        <g>
          <g>
            <path d="M117.29,68.25h0a3.81,3.81,0,0,1-4.17-3.41v0l-3-29.68,7.58-.77,3,29.69A3.82,3.82,0,0,1,117.29,68.25Z" fill="#bdbdbd" stroke="#3894e7" stroke-linecap="round" stroke-linejoin="round"/>
            <polygon points="128.05 42.25 103.34 44.75 101.12 22.58 125.84 20.08 128.05 42.25" fill="#fff" stroke="#3894e7" stroke-linecap="round" stroke-linejoin="round"/>
            <polygon points="103.2 43.43 96.12 44.15 94.17 24.62 101.25 23.9 103.2 43.43" fill="#bdbdbd" stroke="#3894e7" stroke-linecap="round" stroke-linejoin="round"/>
            <polygon points="127.83 42.37 157.93 49.18 153.75 7.31 125.6 20.02 127.83 42.37" fill="#fff" stroke="#3894e7" stroke-linecap="round" stroke-linejoin="round"/>
            <line x1="120.94" y1="20.58" x2="123.15" y2="42.75" fill="none" stroke="#3894e7" stroke-linecap="round" stroke-linejoin="round"/>
          </g>
          <polygon points="77.04 112.45 -20.8 160.75 -33.21 135.29 64.63 86.99 77.04 112.45" fill="#bdbdbd" stroke="#3894e7" stroke-miterlimit="10"/>
          <g>
            <g>
              <path d="M80.5,78.73l8.2-13.61A8.77,8.77,0,0,0,90,61.21a57.85,57.85,0,0,1,3.65-16,10.6,10.6,0,0,0,.35-6l-.39-1.72a1.93,1.93,0,0,1,1.45-2.31,1.69,1.69,0,0,1,.55,0,5.58,5.58,0,0,1,2.65,1.08,8.24,8.24,0,0,1,3.18,4.57,14.74,14.74,0,0,1-.26,8.4,10.78,10.78,0,0,0-.32,4.79c.52,3.42,1.94,8.44,5.79,8.12L120,57.37a5.2,5.2,0,0,1,3-.16c2.18.56,5.25,2.25,2.26,7.45L117,70.47l8.19-5.81s5.39,2.4,1.87,7.56l-8.61,8.49,8.61-8.49s4,2.8,1.87,6.12l-8,9.7,6.24-7.55.47.38a4.43,4.43,0,0,1,1.08,4.66c-1.94,4.84-5.78,7.39-10.22,10.25L97,98.15,82.8,108.41l-1.44-3.34-9-20.82Z" fill="#fff" stroke="#3894e7" stroke-miterlimit="10"/>
              <g>
                <polygon points="74.65 115.59 60.22 85.99 77.77 77.33 92.2 106.93 74.65 115.59" fill="#fff" stroke="#3894e7" stroke-miterlimit="10"/>
                <path d="M81,107.69a2.38,2.38,0,0,1-3.19-1.08v0A2.4,2.4,0,1,1,81,107.68Z" fill="#3894e7"/>
              </g>
            </g>
            <g>
              <path d="M109.2,66.34c-2.2,3.82-.2,7.66,2.24,8.48" fill="none" stroke="#3894e7" stroke-miterlimit="10"/>
              <path d="M116,86.48a3.35,3.35,0,0,0,.84,4.65,3.3,3.3,0,0,0,.45.26" fill="none" stroke="#3894e7" stroke-miterlimit="10"/>
              <path d="M112.24,76.35c-1.86,3.21-.2,6.4,1.88,7.12" fill="none" stroke="#3894e7" stroke-miterlimit="10"/>
            </g>
          </g>
        </g>
        <g>
          <g>
            <g>
              <g>
                <path d="M392.84,54.48c-2.51-1.15-20.43-7.71-24.75-9.29a1.77,1.77,0,0,0-1.73.27h0a1.84,1.84,0,0,0-.31,2.57,1.9,1.9,0,0,0,.77.57l24.82,9.68L360.39,45.41a6.56,6.56,0,0,0-5.38.18l-.75.37-.76-.35a3.41,3.41,0,0,0-3.26.86h0a2.27,2.27,0,0,0-.71,3.13,2.19,2.19,0,0,0,.71.71h0a3,3,0,0,0,1.07,3.74L370,66.39l21.5-6" fill="none" stroke="#3894e7" stroke-miterlimit="10"/>
                <path d="M368.73,68.64c.15-2.85,2.69-10.36,24.31-14.31a29.85,29.85,0,0,0,12.7-5.66h0c5.15-4.76,15-4.51,22.39-3.92l22.81,1.85,1.48,20.72L399.27,79.51a8.53,8.53,0,0,1-6.54-1l-14.9-9.27s-5,2.18-7.72,1.41A2,2,0,0,1,368.73,68.64Z" fill="#fff" stroke="#3894e7" stroke-miterlimit="10"/>
              </g>
              <g>
                <rect x="434.09" y="39.77" width="21.33" height="35.97" fill="#fff" stroke="#3894e7" stroke-miterlimit="10"/>
                <path d="M444.11,72a2.63,2.63,0,1,1,2.61-2.65v0A2.62,2.62,0,0,1,444.11,72Z" fill="#3894e7"/>
              </g>
            </g>
            <line x1="350.21" y1="50.31" x2="372.89" y2="61.86" fill="none" stroke="#3894e7" stroke-miterlimit="10"/>
            <line x1="354.26" y1="45.96" x2="379.1" y2="58.26" fill="none" stroke="#3894e7" stroke-miterlimit="10"/>
            <path d="M377.83,69.22s9.85-5.56,19.15-5.47a21.84,21.84,0,0,0,15.07-6" fill="#fff" stroke="#3894e7" stroke-miterlimit="10"/>
            <path d="M373.88,70.49s-.89-7.55,9.27-3.74" fill="none" stroke="#3894e7" stroke-miterlimit="10"/>
          </g>
          <g>
            <ellipse cx="387.02" cy="30.73" rx="24.83" ry="24.99" fill="#fff" stroke="#3894e7" stroke-miterlimit="10"/>
            <ellipse cx="387.03" cy="30.74" rx="24.99" ry="11.04" transform="translate(350.35 417.25) rotate(-89.12)" fill="none" stroke="#3894e7" stroke-miterlimit="10"/>
            <path d="M411.88,29.94c0,1.3-11.15,2.19-24.87,2s-24.83-1.44-24.81-2.75" fill="none" stroke="#3894e7" stroke-miterlimit="10"/>
            <path d="M408.73,42.76c0,1.31-9.85,2.22-21.94,2s-21.89-1.4-21.87-2.71" fill="none" stroke="#3894e7" stroke-miterlimit="10"/>
            <path d="M407.81,17c0,1.3-9.25,2.22-20.61,2s-20.55-1.38-20.53-2.69" fill="none" stroke="#3894e7" stroke-miterlimit="10"/>
            <line x1="386.64" y1="55.45" x2="387.4" y2="6.01" fill="none" stroke="#3894e7" stroke-miterlimit="10"/>
          </g>
          <rect x="455.42" y="43.45" width="82.72" height="28.55" fill="#bdbdbd" stroke="#3894e7" stroke-miterlimit="10"/>
        </g>
        <g>
          <polygon points="77.2 305 56.2 296.81 78.25 239.56 99.25 247.75 77.2 305" fill="#bdbdbd" stroke="#3894e7" stroke-miterlimit="10"/>
          <g>
            <g>
              <path d="M103.63,237.4l-21.77-6.9,3.41-12.26-.46-22.39A4.08,4.08,0,0,1,85,194.6l4.75-16.17,8.65-17.1a.63.63,0,0,1,.85-.27.59.59,0,0,1,.27.27h0l1.07-2.34a1.63,1.63,0,0,1,2.13-.82h0a1.65,1.65,0,0,1,.84,2.18,1.19,1.19,0,0,1-.08.16l-.72,1.23h0a2.12,2.12,0,0,1,3,.11,2.26,2.26,0,0,1,.35.52h0a7.37,7.37,0,0,1,.71,4l-1.62,14.92a96.53,96.53,0,0,0,.27,23.29h0s8.58,13,11.53,1.8c0,0-1.1-6.42,2.17-9.15a2.74,2.74,0,0,1,2.12-.59h0a2.18,2.18,0,0,1,1.88,2l-.54,4.87.7,5.21a7.25,7.25,0,0,1-.86,4.54l-3.86,6.91a4.36,4.36,0,0,1-2.29,2c-3.1,1.13-10.08,4.1-11.12,8.24Z" fill="#fff" stroke="#3894e7" stroke-linecap="round" stroke-linejoin="round"/>
              <g>
                <polygon points="79.8 224.71 108.22 234.28 102.54 251.35 74.12 241.77 79.8 224.71" fill="#fff" stroke="#3894e7" stroke-linecap="round" stroke-linejoin="round"/>
                <path d="M79.21,234a1.86,1.86,0,1,1,1.18,2.37A1.86,1.86,0,0,1,79.21,234Z" fill="#3894e7"/>
              </g>
            </g>
            <polyline points="102.74 161.75 96.52 176.73 94 193.86" fill="none" stroke="#3894e7" stroke-linecap="round" stroke-linejoin="round"/>
            <polyline points="99.5 161.34 91.99 179.26 89.76 189.36" fill="none" stroke="#3894e7" stroke-linecap="round" stroke-linejoin="round"/>
          </g>
        </g>
        <g>
          <rect x="220.26" y="13.81" width="45.7" height="7.98" fill="#fff" stroke="#3894e7" stroke-linecap="round" stroke-linejoin="round"/>
          <g>
            <rect x="265.96" y="13.81" width="2.62" height="7.98" fill="#bdbdbd" stroke="#3894e7" stroke-miterlimit="10"/>
            <path d="M270.32,21.79h-1.74v-8h1.74a4,4,0,0,1,4,4h0A4,4,0,0,1,270.32,21.79Z" fill="#bdbdbd" stroke="#3894e7" stroke-miterlimit="10"/>
          </g>
          <g>
            <polygon points="220.26 21.79 209.95 17.8 220.26 13.81 220.26 21.79" fill="#bdbdbd" stroke="#3894e7" stroke-linecap="round" stroke-linejoin="round"/>
            <polygon points="215.11 15.8 215.11 19.8 209.95 17.8 215.11 15.8" fill="#fff" stroke="#3894e7" stroke-miterlimit="10"/>
          </g>
          <g>
            <line x1="220.26" y1="16.48" x2="265.87" y2="16.48" fill="none" stroke="#3894e7" stroke-linecap="round" stroke-linejoin="round"/>
            <line x1="220.26" y1="19.12" x2="265.87" y2="19.12" fill="none" stroke="#3894e7" stroke-linecap="round" stroke-linejoin="round"/>
          </g>
        </g>
        <g>
          <rect x="459.65" y="12.28" width="62.02" height="10.83" fill="#fff" stroke="#3894e7" stroke-linecap="round" stroke-linejoin="round"/>
          <g>
            <rect x="456.09" y="12.28" width="3.56" height="10.83" fill="#bdbdbd" stroke="#3894e7" stroke-miterlimit="10"/>
            <path d="M453.73,12.27h2.36V23.11h-2.36a5.4,5.4,0,0,1-5.38-5.42h0a5.4,5.4,0,0,1,5.38-5.42Z" fill="#fff" stroke="#3894e7" stroke-miterlimit="10"/>
          </g>
          <rect x="465.83" y="23.11" width="13.91" height="3.21" fill="#fff" stroke="#3894e7" stroke-linecap="round" stroke-linejoin="round"/>
          <rect x="465.09" y="26.32" width="34.77" height="2.08" fill="#bdbdbd" stroke="#3894e7" stroke-miterlimit="10"/>
        </g>
      </g>
    </g>
  </g>
</svg>
